<mxfile host="app.diagrams.net" modified="2024-04-08T12:14:53.637Z" agent="Mozilla/5.0 (Windows NT 10.0; Win64; x64) AppleWebKit/537.36 (KHTML, like Gecko) Chrome/123.0.0.0 Safari/537.36 Edg/123.0.0.0" etag="aPtVIm2geqj-ssfiM_XY" version="24.0.0" type="device">
  <diagram name="Page-1" id="VTeT1nEJJ73bSebOG55x">
    <mxGraphModel dx="1002" dy="577" grid="1" gridSize="10" guides="1" tooltips="1" connect="1" arrows="1" fold="1" page="1" pageScale="1" pageWidth="850" pageHeight="1100" math="0" shadow="0">
      <root>
        <mxCell id="0" />
        <mxCell id="1" parent="0" />
        <mxCell id="BPXVuaYqiwa7xN82_-O_-2" value="Static segment" style="rounded=0;whiteSpace=wrap;html=1;fillColor=#dae8fc;strokeColor=#6c8ebf;" parent="1" vertex="1">
          <mxGeometry x="79.17" y="340" width="240" height="20" as="geometry" />
        </mxCell>
        <mxCell id="BPXVuaYqiwa7xN82_-O_-3" value="1" style="rounded=0;whiteSpace=wrap;html=1;fillColor=#dae8fc;strokeColor=#6c8ebf;" parent="1" vertex="1">
          <mxGeometry x="79.17" y="360" width="80" height="20" as="geometry" />
        </mxCell>
        <mxCell id="BPXVuaYqiwa7xN82_-O_-4" value="2" style="rounded=0;whiteSpace=wrap;html=1;fillColor=#dae8fc;strokeColor=#6c8ebf;" parent="1" vertex="1">
          <mxGeometry x="159.17" y="360" width="80" height="20" as="geometry" />
        </mxCell>
        <mxCell id="BPXVuaYqiwa7xN82_-O_-5" value="3" style="rounded=0;whiteSpace=wrap;html=1;fillColor=#dae8fc;strokeColor=#6c8ebf;" parent="1" vertex="1">
          <mxGeometry x="239.17" y="360" width="80" height="20" as="geometry" />
        </mxCell>
        <mxCell id="BPXVuaYqiwa7xN82_-O_-6" value="Dynamic segment" style="rounded=0;whiteSpace=wrap;html=1;fillColor=#fff2cc;strokeColor=#d6b656;" parent="1" vertex="1">
          <mxGeometry x="319.17" y="340" width="120" height="20" as="geometry" />
        </mxCell>
        <mxCell id="BPXVuaYqiwa7xN82_-O_-7" value="4" style="rounded=0;whiteSpace=wrap;html=1;fillColor=#fff2cc;strokeColor=#d6b656;" parent="1" vertex="1">
          <mxGeometry x="319.17" y="360" width="20" height="20" as="geometry" />
        </mxCell>
        <mxCell id="BPXVuaYqiwa7xN82_-O_-8" value="5" style="rounded=0;whiteSpace=wrap;html=1;fillColor=#fff2cc;strokeColor=#d6b656;" parent="1" vertex="1">
          <mxGeometry x="339.17" y="360" width="60" height="20" as="geometry" />
        </mxCell>
        <mxCell id="BPXVuaYqiwa7xN82_-O_-9" value="6" style="rounded=0;whiteSpace=wrap;html=1;fillColor=#fff2cc;strokeColor=#d6b656;" parent="1" vertex="1">
          <mxGeometry x="399.17" y="360" width="20" height="20" as="geometry" />
        </mxCell>
        <mxCell id="BPXVuaYqiwa7xN82_-O_-10" value="7" style="rounded=0;whiteSpace=wrap;html=1;fillColor=#fff2cc;strokeColor=#d6b656;" parent="1" vertex="1">
          <mxGeometry x="419.17" y="360" width="20" height="20" as="geometry" />
        </mxCell>
        <mxCell id="BPXVuaYqiwa7xN82_-O_-11" value="Symbol" style="rounded=0;whiteSpace=wrap;html=1;fillColor=#d5e8d4;strokeColor=#82b366;" parent="1" vertex="1">
          <mxGeometry x="439.17" y="340" width="80" height="40" as="geometry" />
        </mxCell>
        <mxCell id="BPXVuaYqiwa7xN82_-O_-12" value="Cycle" style="rounded=0;whiteSpace=wrap;html=1;fillColor=#e1d5e7;strokeColor=#9673a6;" parent="1" vertex="1">
          <mxGeometry x="79.17" y="320" width="480" height="20" as="geometry" />
        </mxCell>
        <mxCell id="BPXVuaYqiwa7xN82_-O_-13" value="" style="endArrow=classic;html=1;rounded=0;" parent="1" edge="1">
          <mxGeometry width="50" height="50" relative="1" as="geometry">
            <mxPoint x="79.17" y="300.4" as="sourcePoint" />
            <mxPoint x="79.17" y="320" as="targetPoint" />
          </mxGeometry>
        </mxCell>
        <mxCell id="BPXVuaYqiwa7xN82_-O_-14" value="" style="endArrow=classic;html=1;rounded=0;" parent="1" edge="1">
          <mxGeometry width="50" height="50" relative="1" as="geometry">
            <mxPoint x="89.17" y="300.4" as="sourcePoint" />
            <mxPoint x="89.17" y="320" as="targetPoint" />
            <Array as="points">
              <mxPoint x="89.17" y="300" />
            </Array>
          </mxGeometry>
        </mxCell>
        <mxCell id="BPXVuaYqiwa7xN82_-O_-15" value="" style="endArrow=classic;html=1;rounded=0;" parent="1" edge="1">
          <mxGeometry width="50" height="50" relative="1" as="geometry">
            <mxPoint x="99.17" y="300.4" as="sourcePoint" />
            <mxPoint x="99.17" y="320" as="targetPoint" />
          </mxGeometry>
        </mxCell>
        <mxCell id="BPXVuaYqiwa7xN82_-O_-16" value="" style="endArrow=classic;html=1;rounded=0;" parent="1" edge="1">
          <mxGeometry width="50" height="50" relative="1" as="geometry">
            <mxPoint x="109.17" y="300.4" as="sourcePoint" />
            <mxPoint x="109.17" y="320" as="targetPoint" />
          </mxGeometry>
        </mxCell>
        <mxCell id="BPXVuaYqiwa7xN82_-O_-17" value="" style="endArrow=classic;html=1;rounded=0;" parent="1" edge="1">
          <mxGeometry width="50" height="50" relative="1" as="geometry">
            <mxPoint x="119.17" y="300.4" as="sourcePoint" />
            <mxPoint x="119.17" y="320" as="targetPoint" />
          </mxGeometry>
        </mxCell>
        <mxCell id="BPXVuaYqiwa7xN82_-O_-18" value="" style="endArrow=classic;html=1;rounded=0;" parent="1" edge="1">
          <mxGeometry width="50" height="50" relative="1" as="geometry">
            <mxPoint x="129.17" y="300.4" as="sourcePoint" />
            <mxPoint x="129.17" y="320" as="targetPoint" />
            <Array as="points">
              <mxPoint x="129.17" y="300" />
            </Array>
          </mxGeometry>
        </mxCell>
        <mxCell id="BPXVuaYqiwa7xN82_-O_-19" value="" style="endArrow=classic;html=1;rounded=0;" parent="1" edge="1">
          <mxGeometry width="50" height="50" relative="1" as="geometry">
            <mxPoint x="139.17" y="300.4" as="sourcePoint" />
            <mxPoint x="139.17" y="320" as="targetPoint" />
          </mxGeometry>
        </mxCell>
        <mxCell id="BPXVuaYqiwa7xN82_-O_-20" value="" style="endArrow=classic;html=1;rounded=0;" parent="1" edge="1">
          <mxGeometry width="50" height="50" relative="1" as="geometry">
            <mxPoint x="149.17" y="300.4" as="sourcePoint" />
            <mxPoint x="149.17" y="320" as="targetPoint" />
          </mxGeometry>
        </mxCell>
        <mxCell id="BPXVuaYqiwa7xN82_-O_-21" value="" style="endArrow=classic;html=1;rounded=0;" parent="1" edge="1">
          <mxGeometry width="50" height="50" relative="1" as="geometry">
            <mxPoint x="159.08" y="300.4" as="sourcePoint" />
            <mxPoint x="159.08" y="320" as="targetPoint" />
          </mxGeometry>
        </mxCell>
        <mxCell id="BPXVuaYqiwa7xN82_-O_-22" value="" style="endArrow=classic;html=1;rounded=0;" parent="1" edge="1">
          <mxGeometry width="50" height="50" relative="1" as="geometry">
            <mxPoint x="168.98" y="300.4" as="sourcePoint" />
            <mxPoint x="168.98" y="320" as="targetPoint" />
          </mxGeometry>
        </mxCell>
        <mxCell id="BPXVuaYqiwa7xN82_-O_-23" value="" style="endArrow=classic;html=1;rounded=0;" parent="1" edge="1">
          <mxGeometry width="50" height="50" relative="1" as="geometry">
            <mxPoint x="178.98" y="300.4" as="sourcePoint" />
            <mxPoint x="178.98" y="320" as="targetPoint" />
            <Array as="points">
              <mxPoint x="178.98" y="300" />
            </Array>
          </mxGeometry>
        </mxCell>
        <mxCell id="BPXVuaYqiwa7xN82_-O_-24" value="" style="endArrow=classic;html=1;rounded=0;" parent="1" edge="1">
          <mxGeometry width="50" height="50" relative="1" as="geometry">
            <mxPoint x="188.98" y="300.4" as="sourcePoint" />
            <mxPoint x="188.98" y="320" as="targetPoint" />
          </mxGeometry>
        </mxCell>
        <mxCell id="BPXVuaYqiwa7xN82_-O_-25" value="" style="endArrow=classic;html=1;rounded=0;" parent="1" edge="1">
          <mxGeometry width="50" height="50" relative="1" as="geometry">
            <mxPoint x="198.98" y="300.4" as="sourcePoint" />
            <mxPoint x="198.98" y="320" as="targetPoint" />
          </mxGeometry>
        </mxCell>
        <mxCell id="BPXVuaYqiwa7xN82_-O_-26" value="" style="endArrow=classic;html=1;rounded=0;" parent="1" edge="1">
          <mxGeometry width="50" height="50" relative="1" as="geometry">
            <mxPoint x="208.98" y="300.4" as="sourcePoint" />
            <mxPoint x="208.98" y="320" as="targetPoint" />
          </mxGeometry>
        </mxCell>
        <mxCell id="BPXVuaYqiwa7xN82_-O_-27" value="" style="endArrow=classic;html=1;rounded=0;" parent="1" edge="1">
          <mxGeometry width="50" height="50" relative="1" as="geometry">
            <mxPoint x="218.98" y="300.4" as="sourcePoint" />
            <mxPoint x="218.98" y="320" as="targetPoint" />
            <Array as="points">
              <mxPoint x="218.98" y="300" />
            </Array>
          </mxGeometry>
        </mxCell>
        <mxCell id="BPXVuaYqiwa7xN82_-O_-28" value="" style="endArrow=classic;html=1;rounded=0;" parent="1" edge="1">
          <mxGeometry width="50" height="50" relative="1" as="geometry">
            <mxPoint x="228.98" y="300.4" as="sourcePoint" />
            <mxPoint x="228.98" y="320" as="targetPoint" />
          </mxGeometry>
        </mxCell>
        <mxCell id="BPXVuaYqiwa7xN82_-O_-29" value="" style="endArrow=classic;html=1;rounded=0;" parent="1" edge="1">
          <mxGeometry width="50" height="50" relative="1" as="geometry">
            <mxPoint x="238.98" y="300.4" as="sourcePoint" />
            <mxPoint x="238.98" y="320" as="targetPoint" />
          </mxGeometry>
        </mxCell>
        <mxCell id="BPXVuaYqiwa7xN82_-O_-30" value="" style="endArrow=classic;html=1;rounded=0;" parent="1" edge="1">
          <mxGeometry width="50" height="50" relative="1" as="geometry">
            <mxPoint x="248.98" y="300.4" as="sourcePoint" />
            <mxPoint x="248.98" y="320" as="targetPoint" />
          </mxGeometry>
        </mxCell>
        <mxCell id="BPXVuaYqiwa7xN82_-O_-31" value="" style="endArrow=classic;html=1;rounded=0;" parent="1" edge="1">
          <mxGeometry width="50" height="50" relative="1" as="geometry">
            <mxPoint x="258.98" y="300.4" as="sourcePoint" />
            <mxPoint x="258.98" y="320" as="targetPoint" />
            <Array as="points">
              <mxPoint x="258.98" y="300" />
            </Array>
          </mxGeometry>
        </mxCell>
        <mxCell id="BPXVuaYqiwa7xN82_-O_-32" value="" style="endArrow=classic;html=1;rounded=0;" parent="1" edge="1">
          <mxGeometry width="50" height="50" relative="1" as="geometry">
            <mxPoint x="268.98" y="300.4" as="sourcePoint" />
            <mxPoint x="268.98" y="320" as="targetPoint" />
          </mxGeometry>
        </mxCell>
        <mxCell id="BPXVuaYqiwa7xN82_-O_-33" value="" style="endArrow=classic;html=1;rounded=0;" parent="1" edge="1">
          <mxGeometry width="50" height="50" relative="1" as="geometry">
            <mxPoint x="278.98" y="300.4" as="sourcePoint" />
            <mxPoint x="278.98" y="320" as="targetPoint" />
          </mxGeometry>
        </mxCell>
        <mxCell id="BPXVuaYqiwa7xN82_-O_-34" value="" style="endArrow=classic;html=1;rounded=0;" parent="1" edge="1">
          <mxGeometry width="50" height="50" relative="1" as="geometry">
            <mxPoint x="288.98" y="300.4" as="sourcePoint" />
            <mxPoint x="288.98" y="320" as="targetPoint" />
          </mxGeometry>
        </mxCell>
        <mxCell id="BPXVuaYqiwa7xN82_-O_-35" value="" style="endArrow=classic;html=1;rounded=0;" parent="1" edge="1">
          <mxGeometry width="50" height="50" relative="1" as="geometry">
            <mxPoint x="298.98" y="300.4" as="sourcePoint" />
            <mxPoint x="298.98" y="320" as="targetPoint" />
            <Array as="points">
              <mxPoint x="298.98" y="300" />
            </Array>
          </mxGeometry>
        </mxCell>
        <mxCell id="BPXVuaYqiwa7xN82_-O_-36" value="" style="endArrow=classic;html=1;rounded=0;" parent="1" edge="1">
          <mxGeometry width="50" height="50" relative="1" as="geometry">
            <mxPoint x="308.98" y="300.4" as="sourcePoint" />
            <mxPoint x="308.98" y="320" as="targetPoint" />
          </mxGeometry>
        </mxCell>
        <mxCell id="BPXVuaYqiwa7xN82_-O_-37" value="" style="endArrow=classic;html=1;rounded=0;" parent="1" edge="1">
          <mxGeometry width="50" height="50" relative="1" as="geometry">
            <mxPoint x="318.98" y="300.4" as="sourcePoint" />
            <mxPoint x="318.98" y="320" as="targetPoint" />
          </mxGeometry>
        </mxCell>
        <mxCell id="BPXVuaYqiwa7xN82_-O_-38" value="" style="endArrow=classic;html=1;rounded=0;" parent="1" edge="1">
          <mxGeometry width="50" height="50" relative="1" as="geometry">
            <mxPoint x="328.98" y="300.4" as="sourcePoint" />
            <mxPoint x="328.98" y="320" as="targetPoint" />
          </mxGeometry>
        </mxCell>
        <mxCell id="BPXVuaYqiwa7xN82_-O_-39" value="" style="endArrow=classic;html=1;rounded=0;" parent="1" edge="1">
          <mxGeometry width="50" height="50" relative="1" as="geometry">
            <mxPoint x="338.98" y="300.4" as="sourcePoint" />
            <mxPoint x="338.98" y="320" as="targetPoint" />
            <Array as="points">
              <mxPoint x="338.98" y="300" />
            </Array>
          </mxGeometry>
        </mxCell>
        <mxCell id="BPXVuaYqiwa7xN82_-O_-40" value="" style="endArrow=classic;html=1;rounded=0;" parent="1" edge="1">
          <mxGeometry width="50" height="50" relative="1" as="geometry">
            <mxPoint x="348.98" y="300.4" as="sourcePoint" />
            <mxPoint x="348.98" y="320" as="targetPoint" />
          </mxGeometry>
        </mxCell>
        <mxCell id="BPXVuaYqiwa7xN82_-O_-41" value="" style="endArrow=classic;html=1;rounded=0;" parent="1" edge="1">
          <mxGeometry width="50" height="50" relative="1" as="geometry">
            <mxPoint x="358.98" y="300.4" as="sourcePoint" />
            <mxPoint x="358.98" y="320" as="targetPoint" />
          </mxGeometry>
        </mxCell>
        <mxCell id="BPXVuaYqiwa7xN82_-O_-42" value="" style="endArrow=classic;html=1;rounded=0;" parent="1" edge="1">
          <mxGeometry width="50" height="50" relative="1" as="geometry">
            <mxPoint x="368.98" y="300.4" as="sourcePoint" />
            <mxPoint x="368.98" y="320" as="targetPoint" />
          </mxGeometry>
        </mxCell>
        <mxCell id="BPXVuaYqiwa7xN82_-O_-43" value="" style="endArrow=classic;html=1;rounded=0;" parent="1" edge="1">
          <mxGeometry width="50" height="50" relative="1" as="geometry">
            <mxPoint x="378.98" y="300.4" as="sourcePoint" />
            <mxPoint x="378.98" y="320" as="targetPoint" />
            <Array as="points">
              <mxPoint x="378.98" y="300" />
            </Array>
          </mxGeometry>
        </mxCell>
        <mxCell id="BPXVuaYqiwa7xN82_-O_-44" value="" style="endArrow=classic;html=1;rounded=0;" parent="1" edge="1">
          <mxGeometry width="50" height="50" relative="1" as="geometry">
            <mxPoint x="388.98" y="300.4" as="sourcePoint" />
            <mxPoint x="388.98" y="320" as="targetPoint" />
          </mxGeometry>
        </mxCell>
        <mxCell id="BPXVuaYqiwa7xN82_-O_-45" value="" style="endArrow=classic;html=1;rounded=0;" parent="1" edge="1">
          <mxGeometry width="50" height="50" relative="1" as="geometry">
            <mxPoint x="398.97999999999996" y="300.4" as="sourcePoint" />
            <mxPoint x="398.97999999999996" y="320" as="targetPoint" />
          </mxGeometry>
        </mxCell>
        <mxCell id="BPXVuaYqiwa7xN82_-O_-46" value="" style="endArrow=classic;html=1;rounded=0;" parent="1" edge="1">
          <mxGeometry width="50" height="50" relative="1" as="geometry">
            <mxPoint x="409.09" y="300.4" as="sourcePoint" />
            <mxPoint x="409.09" y="320" as="targetPoint" />
          </mxGeometry>
        </mxCell>
        <mxCell id="BPXVuaYqiwa7xN82_-O_-47" value="" style="endArrow=classic;html=1;rounded=0;" parent="1" edge="1">
          <mxGeometry width="50" height="50" relative="1" as="geometry">
            <mxPoint x="419.09" y="300.4" as="sourcePoint" />
            <mxPoint x="419.09" y="320" as="targetPoint" />
          </mxGeometry>
        </mxCell>
        <mxCell id="BPXVuaYqiwa7xN82_-O_-48" value="" style="endArrow=classic;html=1;rounded=0;" parent="1" edge="1">
          <mxGeometry width="50" height="50" relative="1" as="geometry">
            <mxPoint x="429.09" y="300.4" as="sourcePoint" />
            <mxPoint x="429.09" y="320" as="targetPoint" />
            <Array as="points">
              <mxPoint x="429.09" y="300" />
            </Array>
          </mxGeometry>
        </mxCell>
        <mxCell id="BPXVuaYqiwa7xN82_-O_-49" value="" style="endArrow=classic;html=1;rounded=0;" parent="1" edge="1">
          <mxGeometry width="50" height="50" relative="1" as="geometry">
            <mxPoint x="439.09" y="300.4" as="sourcePoint" />
            <mxPoint x="439.09" y="320" as="targetPoint" />
          </mxGeometry>
        </mxCell>
        <mxCell id="BPXVuaYqiwa7xN82_-O_-50" value="" style="endArrow=classic;html=1;rounded=0;" parent="1" edge="1">
          <mxGeometry width="50" height="50" relative="1" as="geometry">
            <mxPoint x="449.09" y="300.4" as="sourcePoint" />
            <mxPoint x="449.09" y="320" as="targetPoint" />
          </mxGeometry>
        </mxCell>
        <mxCell id="BPXVuaYqiwa7xN82_-O_-51" value="" style="endArrow=classic;html=1;rounded=0;" parent="1" edge="1">
          <mxGeometry width="50" height="50" relative="1" as="geometry">
            <mxPoint x="459.17" y="300.4" as="sourcePoint" />
            <mxPoint x="459.17" y="320" as="targetPoint" />
          </mxGeometry>
        </mxCell>
        <mxCell id="BPXVuaYqiwa7xN82_-O_-52" value="" style="endArrow=classic;html=1;rounded=0;" parent="1" edge="1">
          <mxGeometry width="50" height="50" relative="1" as="geometry">
            <mxPoint x="469.17" y="300.4" as="sourcePoint" />
            <mxPoint x="469.17" y="320" as="targetPoint" />
            <Array as="points">
              <mxPoint x="469.17" y="300" />
            </Array>
          </mxGeometry>
        </mxCell>
        <mxCell id="BPXVuaYqiwa7xN82_-O_-53" value="" style="endArrow=classic;html=1;rounded=0;" parent="1" edge="1">
          <mxGeometry width="50" height="50" relative="1" as="geometry">
            <mxPoint x="479.17" y="300.4" as="sourcePoint" />
            <mxPoint x="479.17" y="320" as="targetPoint" />
          </mxGeometry>
        </mxCell>
        <mxCell id="BPXVuaYqiwa7xN82_-O_-54" value="" style="endArrow=classic;html=1;rounded=0;" parent="1" edge="1">
          <mxGeometry width="50" height="50" relative="1" as="geometry">
            <mxPoint x="489.17" y="300.4" as="sourcePoint" />
            <mxPoint x="489.17" y="320" as="targetPoint" />
          </mxGeometry>
        </mxCell>
        <mxCell id="BPXVuaYqiwa7xN82_-O_-55" value="" style="endArrow=classic;html=1;rounded=0;" parent="1" edge="1">
          <mxGeometry width="50" height="50" relative="1" as="geometry">
            <mxPoint x="499.17" y="300.4" as="sourcePoint" />
            <mxPoint x="499.17" y="320" as="targetPoint" />
          </mxGeometry>
        </mxCell>
        <mxCell id="BPXVuaYqiwa7xN82_-O_-56" value="" style="endArrow=classic;html=1;rounded=0;" parent="1" edge="1">
          <mxGeometry width="50" height="50" relative="1" as="geometry">
            <mxPoint x="509.17" y="300.4" as="sourcePoint" />
            <mxPoint x="509.17" y="320" as="targetPoint" />
          </mxGeometry>
        </mxCell>
        <mxCell id="BPXVuaYqiwa7xN82_-O_-57" value="" style="endArrow=classic;html=1;rounded=0;" parent="1" edge="1">
          <mxGeometry width="50" height="50" relative="1" as="geometry">
            <mxPoint x="519.01" y="300.4" as="sourcePoint" />
            <mxPoint x="519.01" y="320" as="targetPoint" />
          </mxGeometry>
        </mxCell>
        <mxCell id="BPXVuaYqiwa7xN82_-O_-58" value="Macroticks" style="text;html=1;strokeColor=none;fillColor=none;align=left;verticalAlign=middle;whiteSpace=wrap;rounded=0;" parent="1" vertex="1">
          <mxGeometry x="77.17" y="280" width="145.83" height="20" as="geometry" />
        </mxCell>
        <mxCell id="BPXVuaYqiwa7xN82_-O_-59" value="" style="endArrow=classic;html=1;rounded=0;" parent="1" edge="1">
          <mxGeometry width="50" height="50" relative="1" as="geometry">
            <mxPoint x="529.01" y="300.4" as="sourcePoint" />
            <mxPoint x="529.01" y="320" as="targetPoint" />
          </mxGeometry>
        </mxCell>
        <mxCell id="BPXVuaYqiwa7xN82_-O_-60" value="" style="endArrow=classic;html=1;rounded=0;" parent="1" edge="1">
          <mxGeometry width="50" height="50" relative="1" as="geometry">
            <mxPoint x="539.01" y="300.4" as="sourcePoint" />
            <mxPoint x="539.01" y="320" as="targetPoint" />
          </mxGeometry>
        </mxCell>
        <mxCell id="BPXVuaYqiwa7xN82_-O_-61" value="" style="endArrow=classic;html=1;rounded=0;" parent="1" edge="1">
          <mxGeometry width="50" height="50" relative="1" as="geometry">
            <mxPoint x="549.01" y="300.4" as="sourcePoint" />
            <mxPoint x="549.01" y="320" as="targetPoint" />
          </mxGeometry>
        </mxCell>
        <mxCell id="BPXVuaYqiwa7xN82_-O_-62" value="" style="endArrow=classic;html=1;rounded=0;" parent="1" edge="1">
          <mxGeometry width="50" height="50" relative="1" as="geometry">
            <mxPoint x="559.17" y="300.4" as="sourcePoint" />
            <mxPoint x="559.17" y="320" as="targetPoint" />
          </mxGeometry>
        </mxCell>
        <mxCell id="BPXVuaYqiwa7xN82_-O_-63" value="NIT" style="rounded=0;whiteSpace=wrap;html=1;fillColor=#b0e3e6;strokeColor=#0e8088;" parent="1" vertex="1">
          <mxGeometry x="519.17" y="340" width="40" height="40" as="geometry" />
        </mxCell>
      </root>
    </mxGraphModel>
  </diagram>
</mxfile>
